<svg width="408" height="40" viewBox="0 0 408 40" fill="none" xmlns="http://www.w3.org/2000/svg">
<path d="M0 40V0H24V8H32V32H24V40H0ZM8 32H23.68V8H8V32ZM176 40V0H200V8H208V32H200V40H176ZM184 32H199.68V8H184V32Z" fill="#FF6500"/>
<path d="M48 40V0H72V8H56V16H72V24H56V32H72V40H48ZM88 40V0H112V8H96V16H112V24H96V32H112V40H88ZM128 40V0H152V8H160V16H152V24H136V40H128ZM136 16H151.68V8H136V16ZM224 40V0H232V40H224ZM248 40V0H272V8H280V16H272V32H280V40H272V32H264V24H256V40H248ZM256 16H271.68V8H256V16ZM296 40V0H320V8H304V16H320V24H304V32H320V40H296ZM360 16V8H344V0H360V8H368V16H360ZM344 40V32H336V8H344V32H360V40H344ZM360 32V24H368V32H360ZM392 40V8H384V0H408V8H400V40H392Z" fill="#6498C6"/>
</svg>
