<svg width="230" height="23" viewBox="0 0 230 23" fill="none" xmlns="http://www.w3.org/2000/svg">
<path d="M0.5 23V0.5H14V5H18.5V18.5H14V23H0.5ZM5 18.5H13.82V5H5V18.5ZM99.5 23V0.5H113V5H117.5V18.5H113V23H99.5ZM104 18.5H112.82V5H104V18.5Z" fill="#FF6500"/>
<path d="M27.5 23V0.5H41V5H32V9.5H41V14H32V18.5H41V23H27.5ZM50 23V0.5H63.5V5H54.5V9.5H63.5V14H54.5V18.5H63.5V23H50ZM72.5 23V0.5H86V5H90.5V9.5H86V14H77V23H72.5ZM77 9.5H85.82V5H77V9.5ZM126.5 23V0.5H131V23H126.5ZM140 23V0.5H153.5V5H158V9.5H153.5V18.5H158V23H153.5V18.5H149V14H144.5V23H140ZM144.5 9.5H153.32V5H144.5V9.5ZM167 23V0.5H180.5V5H171.5V9.5H180.5V14H171.5V18.5H180.5V23H167ZM203 9.5V5H194V0.5H203V5H207.5V9.5H203ZM194 23V18.5H189.5V5H194V18.5H203V23H194ZM203 18.5V14H207.5V18.5H203ZM221 23V5H216.5V0.5H230V5H225.5V23H221Z" fill="#6498C6"/>
</svg>
